<?xml version="1.0" encoding="iso-8859-1"?>
<!-- Uploaded to: SVG Repo, www.svgrepo.com, Generator: SVG Repo Mixer Tools -->
<svg height="800px" width="800px" version="1.1" id="Layer_1" xmlns="http://www.w3.org/2000/svg" xmlns:xlink="http://www.w3.org/1999/xlink" 
	 viewBox="0 0 508 508" xml:space="preserve">
<path style="fill:#FFFFFF;" d="M28.25,237.2v228.5c0,7.8,6.3,14.1,14.1,14.1h340.1c7.8,0,14.1-6.3,14.1-14.1V237.2H28.25z"/>
<path style="fill:#FFC10D;" d="M56.45,265.4v16.1h55.4c7.8,0,14.1,6.3,14.1,14.1c0,7.8-6.3,14.1-14.1,14.1h-55.4v31.6h27.2
	c7.8,0,14.1,6.3,14.1,14.1c0,7.8-6.3,14.1-14.1,14.1h-27.2v82h311.9V265.4H56.45z"/>
<path style="fill:#56ACE0;" d="M465.75,28.2h-324.5c-7.8,0-14.1,6.3-14.1,14.1v40.9h255.4c23.3,0,42.3,19,42.3,42.3v255.4h40.9
	c7.8,0,14.1-6.3,14.1-14.1V42.3C479.85,34.6,473.45,28.2,465.75,28.2z"/>
<path style="fill:#FFFFFF;" d="M396.55,208.9v-83.4c0-7.8-6.3-14.1-14.1-14.1H42.35c-7.8,0-14.1,6.3-14.1,14.1v83.4H396.55z"/>
<g>
	<path style="fill:#194F82;" d="M465.75,0h-324.5c-23.3,0-42.3,19-42.3,42.3v40.9h-56.6c-23.3,0-42.3,19-42.3,42.4v340.1
		c0,23.3,19,42.3,42.3,42.3h340.1c23.3,0,42.3-19,42.3-42.3v-56.5h40.9c23.3,0,42.3-19,42.3-42.3V42.3C508.05,19,489.05,0,465.75,0z
		 M479.85,366.8c0,7.8-6.3,14.1-14.1,14.1h-40.9V125.6c0-23.3-19-42.3-42.3-42.3h-255.4v-41c0-7.8,6.3-14.1,14.1-14.1h324.5
		c7.8,0,14.1,6.3,14.1,14.1L479.85,366.8L479.85,366.8z M396.55,465.7c0,7.8-6.3,14.1-14.1,14.1H42.35c-7.8,0-14.1-6.3-14.1-14.1
		V237.2h368.3V465.7z M28.25,125.6c0-7.8,6.3-14.1,14.1-14.1h340.1c7.8,0,14.1,6.3,14.1,14.1V209H28.25V125.6z"/>
	<path style="fill:#194F82;" d="M346.25,147.3h-20.2c-7.8,0-14.1,6.3-14.1,14.1s6.3,14.1,14.1,14.1h20.1c7.8,0,14.1-6.3,14.1-14.1
		S353.95,147.3,346.25,147.3z"/>
	<path style="fill:#194F82;" d="M264.15,147.3h-20.1c-7.8,0-14.1,6.3-14.1,14.1s6.3,14.1,14.1,14.1h20.1c7.8,0,14.1-6.3,14.1-14.1
		S271.95,147.3,264.15,147.3z"/>
	<path style="fill:#194F82;" d="M182.05,147.3h-20.1c-7.8,0-14.1,6.3-14.1,14.1s6.3,14.1,14.1,14.1h20.1c7.8,0,14.1-6.3,14.1-14.1
		S189.85,147.3,182.05,147.3z"/>
</g>
</svg>