<?xml version="1.0" encoding="iso-8859-1"?>
<!-- Uploaded to: SVG Repo, www.svgrepo.com, Generator: SVG Repo Mixer Tools -->
<svg height="800px" width="800px" version="1.1" id="Layer_1" xmlns="http://www.w3.org/2000/svg" xmlns:xlink="http://www.w3.org/1999/xlink" 
	 viewBox="0 0 392.598 392.598" xml:space="preserve">
<g>
	<path style="fill:#FFFFFF;" d="M65.325,175.451c-16.226,5.43-31.095,14.481-43.507,26.764v7.24
		c9.891,1.875,19.846,3.426,29.802,4.59C55.111,199.434,59.701,186.246,65.325,175.451z"/>
	<path style="fill:#FFFFFF;" d="M21.818,271.709h22.691c0.388-12.283,1.487-24.501,3.168-36.267
		c-8.663-1.034-17.325-2.327-25.859-3.814V271.709z"/>
	<path style="fill:#FFFFFF;" d="M21.818,333.446c8.598-1.552,17.261-2.844,25.988-3.879c-1.681-11.442-2.715-23.596-3.168-36.073
		h-22.82V333.446z"/>
	<path style="fill:#FFFFFF;" d="M57.438,370.747c-2.133-6.077-4.008-12.671-5.689-19.717c-10.02,1.164-20.04,2.715-29.931,4.59
		v4.267c0,6.012,4.848,10.925,10.925,10.925h24.695V370.747z"/>
	<path style="fill:#FFFFFF;" d="M21.818,173.77c22.885-16.614,50.683-25.859,79.192-25.859c74.279,0,134.659,60.444,134.659,134.659
		c0,32.97-11.766,63.935-32.84,88.178h157.026c6.012,0,10.925-4.848,10.925-10.925V115.911H21.818V173.77z"/>
	<path style="fill:#FFFFFF;" d="M66.424,271.709h69.236c-0.388-12.283-1.487-23.725-3.038-34.069
		c-10.602,0.711-21.204,1.164-31.741,1.164s-21.01-0.453-31.547-1.228C67.846,247.855,66.812,259.297,66.424,271.709z"/>
	<path style="fill:#FFFFFF;" d="M128.485,215.984c-7.24-29.349-18.618-46.287-27.41-46.287c-8.792,0-20.105,17.002-27.41,46.287
		C91.895,217.147,110.19,217.147,128.485,215.984z"/>
	<path style="fill:#FFFFFF;" d="M144.711,370.747h26.634c5.43-4.331,10.408-8.986,14.869-14.093
		c-11.83-2.392-23.79-4.267-35.879-5.56C148.719,358.077,146.78,364.541,144.711,370.747z"/>
	<path style="fill:#FFFFFF;" d="M213.366,293.495h-55.855c-0.388,12.541-1.487,24.63-3.168,36.073
		c15.321,1.745,30.513,4.331,45.511,7.628C207.289,323.943,211.879,309.075,213.366,293.495z"/>
	<path style="fill:#FFFFFF;" d="M136.824,175.644c5.624,10.667,10.214,23.79,13.576,38.465c11.96-1.422,23.79-3.232,35.62-5.56
		C172.962,193.552,156.024,182.044,136.824,175.644z"/>
	<path style="fill:#FFFFFF;" d="M199.725,227.943c-14.933,3.297-30.061,5.883-45.253,7.628c1.681,11.636,2.715,23.79,3.103,36.073
		h55.855C211.814,255.935,207.03,241.067,199.725,227.943z"/>
	<path style="fill:#FFFFFF;" d="M69.463,327.564c21.01-1.487,42.085-1.487,63.16,0c1.616-10.796,2.65-22.238,3.103-34.069H66.424
		C66.812,305.325,67.846,316.832,69.463,327.564z"/>
	<path style="fill:#FFFFFF;" d="M73.729,349.091c2.004,7.952,4.331,15.192,6.982,21.657h40.792c2.651-6.4,4.913-13.705,6.982-21.527
		C110.125,348.057,91.895,347.927,73.729,349.091z"/>
</g>
<g>
	<path style="fill:#56ACE0;" d="M370.78,32.711c0-6.012-4.848-10.925-10.925-10.925H32.743c-6.012,0-10.925,4.848-10.925,10.925
		v61.414H370.78L370.78,32.711L370.78,32.711z"/>
	<path style="fill:#56ACE0;" d="M309.495,231.758c-2.521-2.521-3.62-6.077-3.038-9.568c0.646-3.491,2.909-6.465,6.077-7.952
		l-47.451-17.713l17.648,47.709l0.065-0.259c1.487-3.232,4.461-5.495,7.952-6.077c0.646-0.065,5.56-1.034,9.568,3.038L315.378,256
		l9.051-9.05L309.495,231.758z"/>
</g>
<g>
	<path style="fill:#194F82;" d="M336,227.362l9.826-4.59c4.008-1.875,6.465-5.947,6.271-10.343
		c-0.129-4.396-3.038-8.275-7.111-9.826l-94.448-34.909c-3.943-1.487-8.469-0.453-11.507,2.521s-4.008,7.499-2.521,11.507
		l34.909,94.448c1.552,4.202,5.495,7.046,9.956,7.111c4.331,0.065,8.275-2.392,10.15-6.271l4.59-9.826l11.766,11.766
		c2.004,2.004,4.784,3.168,7.758,3.168c2.844,0,5.624-1.164,7.758-3.168l24.501-24.501c2.004-2.004,3.168-4.784,3.168-7.758
		c0-2.844-1.164-5.624-3.168-7.758L336,227.362z M300.509,240.808c-4.008-4.008-8.986-3.168-9.568-3.038
		c-3.491,0.646-6.465,2.909-7.952,6.077l-0.065,0.259l-17.648-47.709l47.451,17.713c-3.232,1.487-5.495,4.461-6.077,7.952
		s0.517,7.111,3.038,9.568l15.063,15.063l-9.051,9.051L300.509,240.808z"/>
	<polygon style="fill:#194F82;" points="81.164,61.285 73.923,38.788 63.838,38.788 56.598,61.285 49.228,38.788 38.497,38.788 
		51.232,76.024 62.028,76.024 68.881,55.725 75.733,76.024 86.594,76.024 99.265,38.788 88.404,38.788 	"/>
	<polygon style="fill:#194F82;" points="143.677,61.285 136.436,38.788 126.352,38.788 119.111,61.285 111.741,38.788 
		101.01,38.788 113.681,76.024 124.412,76.024 131.394,55.725 138.246,76.024 149.107,76.024 161.778,38.788 150.917,38.788 	"/>
	<polygon style="fill:#194F82;" points="206.19,61.285 198.95,38.788 188.865,38.788 181.56,61.285 174.255,38.788 163.523,38.788 
		176.194,76.024 186.925,76.024 193.907,55.725 200.76,76.024 211.62,76.024 224.291,38.788 213.43,38.788 	"/>
	<path style="fill:#194F82;" d="M344.921,34.004c-4.267-4.267-11.119-4.267-15.451,0l-7.952,7.952l-8.016-7.952
		c-4.267-4.267-11.119-4.267-15.451,0c-4.267,4.267-4.267,11.119,0,15.451l7.952,7.952l-7.952,7.952
		c-4.267,4.267-4.267,11.119,0,15.451c4.267,4.267,11.119,4.267,15.451,0l7.952-8.016l7.952,7.952
		c4.267,4.267,11.119,4.267,15.451,0c4.267-4.267,4.267-11.119,0-15.451l-7.952-7.887l7.952-7.952
		C349.123,45.188,349.123,38.271,344.921,34.004z"/>
</g>
<path style="fill:#FFC10D;" d="M183.111,380.057c27.41-23.273,44.865-57.988,44.865-96.776c0-70.141-56.824-126.966-126.966-126.966
	c-34.651,0-66.069,13.899-88.954,36.396v181.075c2.198,2.198,4.525,4.267,6.853,6.271H183.111z"/>
<path style="fill:#194F82;" d="M359.855,0H32.743C14.707,0,0.032,14.675,0.032,32.711v327.111c0,18.101,14.675,32.776,32.711,32.776
	h327.111c18.036,0,32.711-14.675,32.711-32.711V32.711C392.566,14.675,377.891,0,359.855,0z M370.78,359.822
	c0,6.012-4.848,10.925-10.925,10.925H202.893c21.075-24.178,32.84-55.079,32.84-88.178c0-74.279-60.444-134.659-134.659-134.659
	c-28.574,0-56.307,9.244-79.192,25.859v-57.859h348.962v243.911H370.78z M21.818,359.822v-4.267
	c9.891-1.875,19.846-3.426,29.931-4.59c1.616,6.982,3.556,13.511,5.689,19.717H32.743C26.731,370.747,21.818,365.834,21.818,359.822
	z M47.677,235.442c-1.681,11.636-2.78,23.855-3.168,36.267H21.818v-40.016C30.416,233.115,39.079,234.408,47.677,235.442z
	 M21.818,209.584v-7.24c12.541-12.347,27.345-21.398,43.507-26.764c-5.689,10.667-10.279,23.855-13.705,38.659
	C41.665,212.945,31.709,211.394,21.818,209.584z M44.638,293.495c0.388,12.541,1.487,24.63,3.168,36.073
	c-8.663,1.034-17.325,2.392-25.988,3.879v-39.952H44.638z M100.945,238.675c10.602,0,21.204-0.388,31.741-1.164
	c1.551,10.343,2.65,21.786,3.038,34.069H66.424c0.388-12.347,1.487-23.79,3.038-34.263
	C79.935,238.222,90.408,238.675,100.945,238.675z M73.665,216.048c7.24-29.35,18.618-46.287,27.41-46.287
	s20.105,17.002,27.41,46.287C110.19,217.147,91.895,217.147,73.665,216.048z M135.725,293.495
	c-0.388,11.83-1.487,23.273-3.103,34.069c-21.01-1.487-42.085-1.422-63.16,0c-1.616-10.796-2.651-22.238-3.103-34.069H135.725z
	 M128.356,349.091c-2.004,7.887-4.331,15.192-6.982,21.527H80.582c-2.651-6.4-4.978-13.705-6.982-21.657
	C91.895,347.927,110.125,348.057,128.356,349.091z M154.343,329.568c1.681-11.442,2.715-23.596,3.168-36.073h55.855
	c-1.487,15.58-6.077,30.448-13.511,43.83C184.857,333.964,169.665,331.313,154.343,329.568z M186.149,356.655
	c-4.461,5.107-9.438,9.762-14.869,14.093h-26.634c2.133-6.077,4.008-12.671,5.689-19.653
	C162.36,352.453,174.384,354.263,186.149,356.655z M157.511,271.709c-0.388-12.283-1.487-24.436-3.103-36.073
	c15.192-1.745,30.384-4.396,45.253-7.628c7.37,13.188,12.154,27.992,13.705,43.766h-55.855V271.709z M150.4,214.044
	c-3.426-14.61-7.887-27.733-13.576-38.465c19.265,6.4,36.137,17.907,49.196,32.905C174.19,210.877,162.36,212.752,150.4,214.044z
	 M21.818,32.711c0-6.012,4.848-10.925,10.925-10.925h327.111c6.012,0,10.925,4.848,10.925,10.925v61.414H21.818V32.711z"/>
</svg>