<?xml version="1.0" encoding="iso-8859-1"?>
<!-- Uploaded to: SVG Repo, www.svgrepo.com, Generator: SVG Repo Mixer Tools -->
<svg version="1.1" id="Layer_1" xmlns="http://www.w3.org/2000/svg" xmlns:xlink="http://www.w3.org/1999/xlink" 
	 viewBox="0 0 512 512" xml:space="preserve">
<polygon style="fill:#DCDCDC;" points="471.149,400.34 503.83,400.34 503.83,78.979 449.362,46.298 "/>
<polygon style="fill:#EEEEEE;" points="73.532,78.979 73.532,400.34 471.149,400.34 471.149,46.298 "/>
<polygon style="fill:#4D4D4D;" points="471.149,13.617 449.362,46.298 471.149,78.979 503.83,78.979 503.83,13.617 "/>
<polygon style="fill:#737373;" points="422.128,13.617 389.447,46.298 422.128,78.979 471.149,78.979 471.149,13.617 "/>
<polygon style="fill:#969696;" points="389.447,13.617 356.766,46.298 389.447,78.979 422.128,78.979 422.128,13.617 "/>
<rect x="73.532" y="13.617" style="fill:#B9B9B9;" width="315.915" height="65.362"/>
<polygon style="fill:#D5F6F5;" points="438.468,111.66 416.681,262.074 438.468,367.66 471.149,367.66 471.149,111.66 "/>
<rect x="106.213" y="111.66" style="fill:#FFFFFF;" width="332.255" height="256"/>
<polygon style="fill:#DCDCDC;" points="405.787,498.383 438.468,498.383 438.468,177.021 384,144.34 "/>
<polygon style="fill:#EEEEEE;" points="8.17,177.021 8.17,498.383 405.787,498.383 405.787,144.34 "/>
<polygon style="fill:#FE5F1A;" points="405.787,111.66 384,144.34 405.787,177.021 438.468,177.021 438.468,111.66 "/>
<polygon style="fill:#FE834D;" points="356.766,111.66 324.085,144.34 356.766,177.021 405.787,177.021 405.787,111.66 "/>
<polygon style="fill:#969696;" points="324.085,111.66 291.404,144.34 324.085,177.021 356.766,177.021 356.766,111.66 "/>
<rect x="8.17" y="111.66" style="fill:#B9B9B9;" width="315.915" height="65.362"/>
<polygon style="fill:#D5F6F5;" points="373.106,209.702 351.319,360.117 373.106,465.702 405.787,465.702 405.787,209.702 "/>
<rect x="40.851" y="209.702" style="fill:#FFFFFF;" width="332.255" height="256"/>
<path d="M503.83,5.447H73.532c-4.513,0-8.17,3.657-8.17,8.17v89.872H8.17c-4.513,0-8.17,3.657-8.17,8.17v386.723
	c0,4.513,3.657,8.17,8.17,8.17h430.298c4.513,0,8.17-3.657,8.17-8.17V375.83h24.511c4.513,0,8.17-3.657,8.17-8.17v-256
	c0-4.513-3.657-8.17-8.17-8.17c-4.513,0-8.17,3.657-8.17,8.17v247.83h-16.34V111.66c0-4.513-3.657-8.17-8.17-8.17H81.702v-16.34
	H495.66V392.17h-24.511c-4.513,0-8.17,3.657-8.17,8.17c0,4.513,3.657,8.17,8.17,8.17h32.681c4.513,0,8.17-3.657,8.17-8.17V13.617
	C512,9.104,508.343,5.447,503.83,5.447z M348.596,119.83v49.021H16.34V119.83H348.596z M430.298,490.213H16.34V185.191h413.957
	V490.213z M430.298,168.851h-65.362V119.83h65.362V168.851z M81.702,21.787h332.255v49.021H81.702V21.787z M430.298,70.809V21.787
	h65.362v49.021H430.298z"/>
<circle cx="462.979" cy="46.298" r="8.17"/>
<path d="M405.787,201.532H40.851c-4.513,0-8.17,3.657-8.17,8.17V400.34c0,4.513,3.657,8.17,8.17,8.17s8.17-3.657,8.17-8.17V217.872
	h348.596v239.66H49.021v-24.511c0-4.513-3.657-8.17-8.17-8.17s-8.17,3.657-8.17,8.17v32.681c0,4.513,3.657,8.17,8.17,8.17h364.936
	c4.513,0,8.17-3.657,8.17-8.17v-256C413.957,205.189,410.3,201.532,405.787,201.532z"/>
<circle cx="397.617" cy="144.34" r="8.17"/>
</svg>