<?xml version="1.0" encoding="iso-8859-1"?>
<!-- Uploaded to: SVG Repo, www.svgrepo.com, Generator: SVG Repo Mixer Tools -->
<svg version="1.1" id="Layer_1" xmlns="http://www.w3.org/2000/svg" xmlns:xlink="http://www.w3.org/1999/xlink" 
	 viewBox="0 0 512 512" xml:space="preserve">
<polygon style="fill:#DCDCDC;" points="471.149,482.043 503.83,482.043 503.83,95.319 449.362,62.638 "/>
<polygon style="fill:#EEEEEE;" points="8.17,95.319 8.17,482.043 471.149,482.043 471.149,62.638 "/>
<polygon style="fill:#FE5F1A;" points="471.149,29.957 449.362,62.638 471.149,95.319 503.83,95.319 503.83,29.957 "/>
<polygon style="fill:#FE834D;" points="356.766,29.957 334.979,62.638 356.766,95.319 471.149,95.319 471.149,29.957 "/>
<polygon style="fill:#02ACAB;" points="324.085,29.957 291.404,62.638 324.085,95.319 356.766,95.319 356.766,29.957 "/>
<rect x="8.17" y="29.957" style="fill:#42C8C6;" width="315.915" height="65.362"/>
<polygon style="fill:#D5F6F5;" points="438.468,128 416.681,278.415 438.468,449.362 471.149,449.362 471.149,128 "/>
<rect x="40.851" y="128" style="fill:#FFFFFF;" width="397.617" height="321.362"/>
<g>
	<circle style="fill:#FFC1A6;" cx="384" cy="278.234" r="21.787"/>
	<circle style="fill:#FFC1A6;" cx="128" cy="278.234" r="21.787"/>
</g>
<path d="M503.83,21.787H8.17c-4.513,0-8.17,3.657-8.17,8.17v452.085c0,4.513,3.657,8.17,8.17,8.17h495.66
	c4.513,0,8.17-3.657,8.17-8.17V29.957C512,25.444,508.343,21.787,503.83,21.787z M495.66,87.149H364.936V38.128H495.66V87.149z
	 M348.596,38.128v49.021H16.34V38.128H348.596z M16.34,473.872V103.489H495.66v370.383H16.34z"/>
<path d="M329.532,264.612c4.513,0,8.17-3.657,8.17-8.17v-32.681c0-4.513-3.657-8.17-8.17-8.17c-4.513,0-8.17,3.657-8.17,8.17v32.681
	C321.362,260.956,325.019,264.612,329.532,264.612z"/>
<path d="M182.468,264.612c4.513,0,8.17-3.657,8.17-8.17v-32.681c0-4.513-3.657-8.17-8.17-8.17s-8.17,3.657-8.17,8.17v32.681
	C174.298,260.956,177.955,264.612,182.468,264.612z"/>
<path d="M174.982,308.736c14.081,32.217,45.882,53.034,81.018,53.034s66.937-20.817,81.018-53.034
	c1.807-4.135-0.08-8.952-4.214-10.759c-4.139-1.808-8.952,0.08-10.759,4.214c-11.48,26.266-37.404,43.238-66.046,43.238
	s-54.566-16.972-66.046-43.238c-1.807-4.134-6.625-6.023-10.759-4.214C175.062,299.784,173.175,304.601,174.982,308.736z"/>
<path d="M471.149,119.83H40.851c-4.513,0-8.17,3.657-8.17,8.17v321.362c0,4.513,3.657,8.17,8.17,8.17h430.298
	c4.513,0,8.17-3.657,8.17-8.17v-32.681c0-4.513-3.657-8.17-8.17-8.17c-4.513,0-8.17,3.657-8.17,8.17v24.511H49.021V136.17h413.957
	V384c0,4.513,3.657,8.17,8.17,8.17c4.513,0,8.17-3.657,8.17-8.17V128C479.319,123.487,475.662,119.83,471.149,119.83z"/>
<circle cx="430.298" cy="62.638" r="8.17"/>
<circle cx="397.617" cy="62.638" r="8.17"/>
<circle cx="462.979" cy="62.638" r="8.17"/>
</svg>